<svg width="695" height="134" xmlns="http://www.w3.org/2000/svg" xmlns:xlink="http://www.w3.org/1999/xlink" overflow="hidden"><defs><clipPath id="clip0"><rect x="84" y="314" width="695" height="134"/></clipPath><clipPath id="clip1"><rect x="166" y="342" width="93" height="56"/></clipPath><clipPath id="clip2"><rect x="625" y="341" width="93" height="56"/></clipPath><clipPath id="clip3"><rect x="381" y="322" width="99" height="96"/></clipPath><clipPath id="clip4"><path d="M430.695 322.547C403.714 322.547 381.843 343.846 381.843 370.117 381.843 396.388 403.714 417.685 430.695 417.685 457.673 417.685 479.545 396.388 479.545 370.117 479.545 343.846 457.673 322.547 430.695 322.547Z"/></clipPath><clipPath id="clip5"><rect x="381" y="322" width="99" height="96"/></clipPath><clipPath id="clip6"><path d="M430.693 322.547C403.714 322.547 381.845 343.844 381.845 370.115 381.845 396.386 403.714 417.681 430.693 417.681 457.672 417.681 479.543 396.386 479.543 370.115 479.543 343.844 457.672 322.547 430.693 322.547Z"/></clipPath></defs><g clip-path="url(#clip0)" transform="translate(-84 -314)"><path d="M-69.5-39.0938 764.5-39.0938 764.5 430.031-69.5 430.031Z" fill="#FFFFFF" transform="matrix(1 0 0 1.00054 84 189.65)"/><path d="M-69.5-39.0938 764.5-39.0938 764.5 430.031-69.5 430.031Z" fill="#FFFFFF" transform="matrix(1 0 0 1.00054 84 189.65)"/><path d="M6.34969-12.9559C8.44994-12.9559 10.0543-12.4129 11.161-11.327 12.2715-10.241 12.8276-8.62341 12.8276-6.47793 12.8276-4.33998 12.2715-2.72616 11.161-1.63645 10.0543-0.544856 8.44994 0 6.34969 0L1.6817 0 1.6817-12.9559ZM6.19892-2.15679C7.52994-2.15679 8.52538-2.49615 9.1852-3.17486 9.84883-3.85734 10.1807-4.95834 10.1807-6.47793 10.1807-7.99559 9.84883-9.09663 9.1852-9.78097 8.52538-10.4635 7.52994-10.8066 6.19892-10.8066L4.24572-10.8066 4.24572-2.15679Z" transform="matrix(1 0 0 1.00054 373.211 300.951)"/><path d="M9.90163-12.9559 9.90163-10.8141 4.24572-10.8141 4.24572-7.38288 9.37376-7.38288 9.37376-5.26376 4.24572-5.26376 4.24572 0 1.6817 0 1.6817-12.9559Z" transform="matrix(1 0 0 1.00054 387.062 300.951)"/><path d="M6.34969-12.9559C8.44994-12.9559 10.0543-12.4129 11.161-11.327 12.2715-10.241 12.8276-8.62341 12.8276-6.47793 12.8276-4.33998 12.2715-2.72616 11.161-1.63645 10.0543-0.544856 8.44994 0 6.34969 0L1.6817 0 1.6817-12.9559ZM6.19892-2.15679C7.52994-2.15679 8.52538-2.49615 9.1852-3.17486 9.84883-3.85734 10.1807-4.95834 10.1807-6.47793 10.1807-7.99559 9.84883-9.09663 9.1852-9.78097 8.52538-10.4635 7.52994-10.8066 6.19892-10.8066L4.24572-10.8066 4.24572-2.15679Z" transform="matrix(1 0 0 1.00054 397.536 300.951)"/><path d="M4.24572-12.9559 4.24572-2.14171 10.0676-2.14171 10.0676 0 1.6817 0 1.6817-12.9559Z" transform="matrix(1 0 0 1.00054 415.668 300.951)"/><path d="M4.24572-5.69364 4.24572-2.14171 10.4295-2.14171 10.4295 0 1.6817 0 1.6817-12.9559 10.2938-12.9559 10.2938-10.8141 4.24572-10.8141 4.24572-7.78255 9.52459-7.78255 9.52459-5.69364Z" transform="matrix(1 0 0 1.00054 426.16 300.951)"/><path d="M7.69959 0 4.6077 0 0.233778-12.9559 2.94862-12.9559 6.10085-3.29552 6.31958-3.29552 9.41899-12.9559 12.0735-12.9559Z" transform="matrix(1 0 0 1.00054 437.298 300.951)"/><path d="M4.24572-5.69364 4.24572-2.14171 10.4295-2.14171 10.4295 0 1.6817 0 1.6817-12.9559 10.2938-12.9559 10.2938-10.8141 4.24572-10.8141 4.24572-7.78255 9.52459-7.78255 9.52459-5.69364Z" transform="matrix(1 0 0 1.00054 449.598 300.951)"/><path d="M4.24572-12.9559 4.24572-2.14171 10.0676-2.14171 10.0676 0 1.6817 0 1.6817-12.9559Z" transform="matrix(1 0 0 1.00054 460.738 300.951)"/><path d="M6.32711 0.188531C5.27133 0.188531 4.35129-0.0452474 3.567-0.512804 2.78271-0.98413 2.17376-1.71563 1.74203-2.7073 1.30841-3.70275 1.09348-4.95834 1.09348-6.47793 1.09348-7.99559 1.30841-9.24934 1.74203-10.241 2.17376-11.2364 2.78271-11.9679 3.567-12.4355 4.35129-12.9068 5.27133-13.1444 6.32711-13.1444 7.39229-13.1444 8.31423-12.9068 9.09475-12.4355 9.87904-11.9679 10.4861-11.2364 10.9197-10.241 11.3571-9.24934 11.5758-7.99559 11.5758-6.47793 11.5758-4.95834 11.3571-3.70275 10.9197-2.7073 10.4861-1.71563 9.87904-0.98413 9.09475-0.512804 8.31423-0.0452474 7.39229 0.188531 6.32711 0.188531ZM6.32711-1.98335C6.904-1.98335 7.38664-2.12286 7.77502-2.40566 8.16717-2.68657 8.46882-3.156 8.67997-3.81586 8.89113-4.47949 8.99668-5.36559 8.99668-6.47793 8.99668-7.58839 8.89113-8.47258 8.67997-9.13244 8.46882-9.79607 8.16717-10.2674 7.77502-10.5502 7.38664-10.8311 6.904-10.9725 6.32711-10.9725 5.74833-10.9725 5.26376-10.8311 4.87166-10.5502 4.48326-10.2674 4.18539-9.79607 3.97423-9.13244 3.76308-8.47258 3.6575-7.58839 3.6575-6.47793 3.6575-5.36559 3.76308-4.47949 3.97423-3.81586 4.18539-3.156 4.48326-2.68657 4.87166-2.40566 5.26376-2.12286 5.74833-1.98335 6.32711-1.98335Z" transform="matrix(1 0 0 1.00054 475.51 300.951)"/><g clip-path="url(#clip1)"><path d="M82.6727 152.851 174.251 152.851 174.251 207.886 82.6727 207.886Z" fill="#A6A6A6" transform="matrix(1 0 0 1.00054 84 189.65)"/></g><path d="M6.39497 0.173448C4.73024 0.173448 3.49536-0.220581 2.69222-1.01053 1.89285-1.79858 1.49316-2.96748 1.49316-4.5172L1.49316-12.0584 3.83095-12.0584 3.83095-4.53982C3.83095-3.65938 4.0421-2.99764 4.46441-2.55648 4.88672-2.11908 5.52959-1.90039 6.39497-1.90039 8.10307-1.90039 8.95898-2.77894 8.95898-4.53982L8.95898-12.0584 11.2892-12.0584 11.2892-4.5172C11.2892-2.96748 10.8858-1.79858 10.0826-1.01053 9.28327-0.220581 8.05404 0.173448 6.39497 0.173448Z" transform="matrix(1 0 0 1.00054 190.031 376.629)"/><path d="M5.34672 0.173448C4.51154 0.173448 3.76685 0.0697563 3.11453-0.135742 2.46033-0.341241 1.91547-0.612725 1.47808-0.950195 1.04446-1.28578 0.71642-1.65341 0.490178-2.05122L1.79481-3.6575 2.00597-3.6575C2.36795-3.11453 2.82796-2.68091 3.38601-2.3604 3.94407-2.04368 4.59638-1.88531 5.34672-1.88531 5.98395-1.88531 6.46471-2.02105 6.78711-2.29253 7.11328-2.56402 7.27728-2.93542 7.27728-3.40864 7.27728-3.6952 7.22452-3.93275 7.11892-4.12506 7.01332-4.31547 6.83991-4.47949 6.59859-4.61523 6.35727-4.75475 6.02922-4.87542 5.61821-4.97721L4.06473-5.33166C2.98256-5.57675 2.17564-5.98771 1.64399-6.5609 1.1161-7.13398 0.852157-7.88058 0.852157-8.80063 0.852157-9.48308 1.01995-10.0826 1.35742-10.5954 1.69866-11.112 2.19638-11.5155 2.85059-11.802 3.5029-12.0886 4.28342-12.2319 5.18837-12.2319 6.11783-12.2319 6.91153-12.1074 7.5714-11.8623 8.23503-11.621 8.79498-11.2459 9.2531-10.7387L8.07667-9.12487 7.86552-9.12487C7.52806-9.4812 7.13779-9.74704 6.69661-9.92426 6.25925-10.1053 5.75586-10.1957 5.18837-10.1957 4.53417-10.1957 4.03644-10.0789 3.6952-9.84883 3.35208-9.61697 3.1824-9.29833 3.1824-8.89113 3.1824-8.51404 3.29929-8.21239 3.53684-7.98618 3.77816-7.75992 4.19293-7.58269 4.78114-7.45827L6.3648-7.12645C7.53559-6.87949 8.38585-6.45906 8.91376-5.86705 9.44162-5.27886 9.70558-4.50589 9.70558-3.55192 9.70558-2.80157 9.54153-2.14925 9.21541-1.5912 8.89301-1.03315 8.40472-0.597642 7.75239-0.286567 7.09817 0.0188531 6.29694 0.173448 5.34672 0.173448Z" transform="matrix(1 0 0 1.00054 202.813 376.629)"/><path d="M3.95161-5.29397 3.95161-1.99842 9.70558-1.99842 9.70558 0 1.56858 0 1.56858-12.0584 9.57739-12.0584 9.57739-10.06 3.95161-10.06 3.95161-7.23958 8.86849-7.23958 8.86849-5.29397Z" transform="matrix(1 0 0 1.00054 213.17 376.629)"/><path d="M1.56858 0 1.56858-12.0584 6.41002-12.0584C7.65625-12.0584 8.597-11.7681 9.23047-11.1912 9.8677-10.6181 10.1882-9.82624 10.1882-8.81569 10.1882-8.08608 10.0016-7.48843 9.63014-7.0209 9.25687-6.55332 8.70449-6.1951 7.97107-5.95002L7.97107-5.77661C8.34816-5.61068 8.65169-5.36371 8.88355-5.03754 9.11922-4.71516 9.3436-4.2344 9.55475-3.59717L10.7538 0 8.30289 0 7.12645-3.60471C7.00579-3.96669 6.87008-4.2476 6.71925-4.44933 6.56843-4.64917 6.37421-4.79622 6.13859-4.88672 5.90668-4.97721 5.60315-5.02244 5.22606-5.02244L3.95161-5.02244 3.95161 0ZM6.12348-6.9153C7.27351-6.9153 7.85041-7.45262 7.85041-8.52915 7.85041-9.6245 7.27351-10.1731 6.12348-10.1731L3.95161-10.1731 3.95161-6.9153Z" transform="matrix(1 0 0 1.00054 223.536 376.629)"/><g clip-path="url(#clip2)"><path d="M541.646 151.779 633.227 151.779 633.227 206.813 541.646 206.813Z" fill="#A6A6A6" transform="matrix(1 0 0 1.00054 84 189.65)"/></g><path d="M6.39497 0.173448C4.73024 0.173448 3.49536-0.220581 2.69222-1.01053 1.89285-1.79858 1.49316-2.96748 1.49316-4.5172L1.49316-12.0584 3.83095-12.0584 3.83095-4.53982C3.83095-3.65938 4.0421-2.99764 4.46441-2.55648 4.88672-2.11908 5.52959-1.90039 6.39497-1.90039 8.10307-1.90039 8.95898-2.77894 8.95898-4.53982L8.95898-12.0584 11.2892-12.0584 11.2892-4.5172C11.2892-2.96748 10.8858-1.79858 10.0826-1.01053 9.28327-0.220581 8.05404 0.173448 6.39497 0.173448Z" transform="matrix(1 0 0 1.00054 649.006 375.555)"/><path d="M5.34672 0.173448C4.51154 0.173448 3.76685 0.0697563 3.11453-0.135742 2.46033-0.341241 1.91547-0.612725 1.47808-0.950195 1.04446-1.28578 0.71642-1.65341 0.490178-2.05122L1.79481-3.6575 2.00597-3.6575C2.36795-3.11453 2.82796-2.68091 3.38601-2.3604 3.94407-2.04368 4.59638-1.88531 5.34672-1.88531 5.98395-1.88531 6.46471-2.02105 6.78711-2.29253 7.11328-2.56402 7.27728-2.93542 7.27728-3.40864 7.27728-3.6952 7.22452-3.93275 7.11892-4.12506 7.01332-4.31547 6.83991-4.47949 6.59859-4.61523 6.35727-4.75475 6.02922-4.87542 5.61821-4.97721L4.06473-5.33166C2.98256-5.57675 2.17564-5.98771 1.64399-6.5609 1.1161-7.13398 0.852157-7.88058 0.852157-8.80063 0.852157-9.48308 1.01995-10.0826 1.35742-10.5954 1.69866-11.112 2.19638-11.5155 2.85059-11.802 3.5029-12.0886 4.28342-12.2319 5.18837-12.2319 6.11783-12.2319 6.91153-12.1074 7.5714-11.8623 8.23503-11.621 8.79498-11.2459 9.2531-10.7387L8.07667-9.12487 7.86552-9.12487C7.52806-9.4812 7.13779-9.74704 6.69661-9.92426 6.25925-10.1053 5.75586-10.1957 5.18837-10.1957 4.53417-10.1957 4.03644-10.0789 3.6952-9.84883 3.35208-9.61697 3.1824-9.29833 3.1824-8.89113 3.1824-8.51404 3.29929-8.21239 3.53684-7.98618 3.77816-7.75992 4.19293-7.58269 4.78114-7.45827L6.3648-7.12645C7.53559-6.87949 8.38585-6.45906 8.91376-5.86705 9.44162-5.27886 9.70558-4.50589 9.70558-3.55192 9.70558-2.80157 9.54153-2.14925 9.21541-1.5912 8.89301-1.03315 8.40472-0.597642 7.75239-0.286567 7.09817 0.0188531 6.29694 0.173448 5.34672 0.173448Z" transform="matrix(1 0 0 1.00054 661.786 375.555)"/><path d="M3.95161-5.29397 3.95161-1.99842 9.70558-1.99842 9.70558 0 1.56858 0 1.56858-12.0584 9.57739-12.0584 9.57739-10.06 3.95161-10.06 3.95161-7.23958 8.86849-7.23958 8.86849-5.29397Z" transform="matrix(1 0 0 1.00054 672.144 375.555)"/><path d="M1.56858 0 1.56858-12.0584 6.41002-12.0584C7.65625-12.0584 8.597-11.7681 9.23047-11.1912 9.8677-10.6181 10.1882-9.82624 10.1882-8.81569 10.1882-8.08608 10.0016-7.48843 9.63014-7.0209 9.25687-6.55332 8.70449-6.1951 7.97107-5.95002L7.97107-5.77661C8.34816-5.61068 8.65169-5.36371 8.88355-5.03754 9.11922-4.71516 9.3436-4.2344 9.55475-3.59717L10.7538 0 8.30289 0 7.12645-3.60471C7.00579-3.96669 6.87008-4.2476 6.71925-4.44933 6.56843-4.64917 6.37421-4.79622 6.13859-4.88672 5.90668-4.97721 5.60315-5.02244 5.22606-5.02244L3.95161-5.02244 3.95161 0ZM6.12348-6.9153C7.27351-6.9153 7.85041-7.45262 7.85041-8.52915 7.85041-9.6245 7.27351-10.1731 6.12348-10.1731L3.95161-10.1731 3.95161-6.9153Z" transform="matrix(1 0 0 1.00054 682.511 375.555)"/><g clip-path="url(#clip3)"><g clip-path="url(#clip4)"><path d="M297.843 132.826 395.528 132.826 395.528 227.911 297.843 227.911Z" fill="#C1FF72" transform="matrix(1 0 0 1.00054 84 189.65)"/></g></g><g clip-path="url(#clip5)"><g clip-path="url(#clip6)"><path d="M48.8491-0.000903743C21.8703-0.000903743 0.000697089 21.2842 0.000697089 47.5409 0.000697089 73.7974 21.8703 95.0807 48.8491 95.0807 75.8278 95.0807 97.6993 73.7974 97.6993 47.5409 97.6993 21.2842 75.8278-0.000903743 48.8491-0.000903743Z" stroke="#000000" stroke-width="2.89583" fill="none" transform="matrix(1 0 0 1.00054 381.844 322.548)"/></g></g><path d="M4.98474-9.64525C5.67289-9.64525 6.26113-9.51894 6.74942-9.26816 7.24147-9.01555 7.61286-8.6611 7.86552-8.20486 8.11625-7.75239 8.24256-7.22452 8.24256-6.62123 8.24256-6.01793 8.11625-5.49002 7.86552-5.03754 7.61286-4.58507 7.24147-4.23063 6.74942-3.97423 6.26113-3.7216 5.67289-3.59717 4.98474-3.59717L3.15978-3.59717 3.15978 0 1.25184 0 1.25184-9.64525ZM4.72836-5.1054C5.7879-5.1054 6.31958-5.61068 6.31958-6.62123 6.31958-7.63173 5.7879-8.137 4.72836-8.137L3.15978-8.137 3.15978-5.1054Z" transform="matrix(1 0 0 1.00054 406.057 365.647)"/><path d="M5.25623 0.135742C4.3758 0.135742 3.59717-0.0414768 2.91846-0.399685 2.24352-0.761662 1.71563-1.31217 1.3348-2.05122 0.952082-2.79403 0.761662-3.71971 0.761662-4.82639 0.761662-5.92738 0.952082-6.84744 1.3348-7.5865 1.71563-8.32928 2.24352-8.88355 2.91846-9.24553 3.59717-9.60751 4.3758-9.7885 5.25623-9.7885 6.14047-9.7885 6.91906-9.60751 7.59403-9.24553 8.26707-8.88736 8.7931-8.33681 9.17014-7.59403 9.55099-6.84932 9.74327-5.92738 9.74327-4.82639 9.74327-3.71971 9.55099-2.79403 9.17014-2.05122 8.7931-1.30652 8.26707-0.75601 7.59403-0.399685 6.91906-0.0414768 6.14047 0.135742 5.25623 0.135742ZM5.25623-1.51579C6.07445-1.51579 6.70038-1.77596 7.13398-2.30007 7.56575-2.82796 7.78255-3.66881 7.78255-4.82639 7.78255-5.97642 7.56575-6.81727 7.13398-7.34518 6.70038-7.87305 6.07445-8.137 5.25623-8.137 4.43613-8.137 3.80832-7.87305 3.37093-7.34518 2.93731-6.81727 2.72238-5.97642 2.72238-4.82639 2.72238-3.66881 2.93731-2.82796 3.37093-2.30007 3.80832-1.77596 4.43613-1.51579 5.25623-1.51579Z" transform="matrix(1 0 0 1.00054 414.871 365.647)"/><path d="M4.6077 0 2.47352 0 0.263943-9.64525 2.16434-9.64525 3.61979-2.86567 3.7857-2.86567 5.52018-9.64525 7.14909-9.64525 8.90618-2.86567 9.07211-2.86567 10.5351-9.64525 12.3752-9.64525 10.1656 0 8.0314 0 6.34216-6.22151 6.20645-6.22151Z" transform="matrix(1 0 0 1.00054 425.381 365.647)"/><path d="M3.15978-4.23817 3.15978-1.59874 7.76749-1.59874 7.76749 0 1.25184 0 1.25184-9.64525 7.66189-9.64525 7.66189-8.05404 3.15978-8.05404 3.15978-5.79167 7.09629-5.79167 7.09629-4.23817Z" transform="matrix(1 0 0 1.00054 438.009 365.647)"/><path d="M1.25184 0 1.25184-9.64525 5.12804-9.64525C6.12725-9.64525 6.88137-9.41334 7.39041-8.95146 7.89757-8.49333 8.15206-7.85987 8.15206-7.05106 8.15206-6.46659 8.00312-5.98771 7.70716-5.61068 7.40928-5.2374 6.96433-4.95458 6.37233-4.75852L6.37233-4.62277C6.67774-4.48704 6.92476-4.28719 7.11139-4.02702 7.29615-3.77062 7.47337-3.3879 7.63926-2.88075L8.60453 0 6.64381 0 5.70117-2.88075C5.60503-3.17109 5.49755-3.39732 5.37689-3.55946 5.25623-3.71971 5.09976-3.83472 4.90935-3.90636 4.7227-3.98177 4.48138-4.01947 4.18539-4.01947L3.15978-4.01947 3.15978 0ZM4.89425-5.52771C5.81807-5.52771 6.28184-5.95948 6.28184-6.8248 6.28184-7.69959 5.81807-8.137 4.89425-8.137L3.15978-8.137 3.15978-5.52771Z" transform="matrix(1 0 0 1.00054 446.302 365.647)"/><path d="M4.6831 0.135742C3.87808 0.135742 3.1824-0.0471327 2.59418-0.414768 2.00974-0.780519 1.55726-1.3348 1.23676-2.07384 0.92003-2.81665 0.761662-3.73479 0.761662-4.82639 0.761662-5.92174 0.952082-6.83991 1.3348-7.57893 1.71563-8.32176 2.24729-8.87602 2.926-9.238 3.60471-9.60374 4.39277-9.7885 5.29397-9.7885 6.21774-9.7885 7.00579-9.61508 7.65436-9.26816 8.30665-8.92506 8.76482-8.41602 9.02684-7.73728L7.63173-6.89266 7.47337-6.90024C7.27163-7.33196 6.99262-7.64683 6.63628-7.84288 6.27807-8.04274 5.83124-8.14453 5.29397-8.14453 4.45875-8.14453 3.81963-7.88058 3.37847-7.35271 2.94108-6.82857 2.72238-5.98771 2.72238-4.82639 2.72238-3.65938 2.92789-2.81288 3.34077-2.285 3.75176-1.7571 4.36072-1.49316 5.16573-1.49316 5.85953-1.49316 6.37233-1.64776 6.70414-1.96072 7.03596-2.2718 7.20189-2.73747 7.20189-3.35585L7.20189-3.77816 4.91688-3.77816 4.91688-5.32409 9.09475-5.32409 9.09475 0 7.26975 0 7.26975-1.29709 7.13398-1.31217C6.93793-0.848387 6.63628-0.492065 6.22903-0.241319 5.8256 0.00942652 5.31091 0.135742 4.6831 0.135742Z" transform="matrix(1 0 0 1.00054 406.667 384.48)"/><path d="M9.26063 0 7.25464 0 6.52315-2.22467 2.82796-2.22467 2.10401 0 0.143283 0 3.47651-9.64525 5.92738-9.64525ZM4.58507-7.63173 3.34831-3.83095 5.99529-3.83095 4.75098-7.63173Z" transform="matrix(1 0 0 1.00054 416.729 384.48)"/><path d="M5.11298 0.135742C3.7857 0.135742 2.79968-0.177219 2.15679-0.806914 1.51202-1.44038 1.19151-2.37737 1.19151-3.61979L1.19151-9.64525 3.06174-9.64525 3.06174-3.62733C3.06174-2.92223 3.22953-2.39434 3.567-2.04368 3.90825-1.69112 4.42293-1.51579 5.11298-1.51579 6.47981-1.51579 7.1642-2.21901 7.1642-3.62733L7.1642-9.64525 9.03442-9.64525 9.03442-3.61979C9.03442-2.37737 8.71202-1.44038 8.06914-0.806914 7.42434-0.177219 6.44024 0.135742 5.11298 0.135742Z" transform="matrix(1 0 0 1.00054 426.131 384.48)"/><path d="M4.6831 0.135742C3.87808 0.135742 3.1824-0.0471327 2.59418-0.414768 2.00974-0.780519 1.55726-1.3348 1.23676-2.07384 0.92003-2.81665 0.761662-3.73479 0.761662-4.82639 0.761662-5.92174 0.952082-6.83991 1.3348-7.57893 1.71563-8.32176 2.24729-8.87602 2.926-9.238 3.60471-9.60374 4.39277-9.7885 5.29397-9.7885 6.21774-9.7885 7.00579-9.61508 7.65436-9.26816 8.30665-8.92506 8.76482-8.41602 9.02684-7.73728L7.63173-6.89266 7.47337-6.90024C7.27163-7.33196 6.99262-7.64683 6.63628-7.84288 6.27807-8.04274 5.83124-8.14453 5.29397-8.14453 4.45875-8.14453 3.81963-7.88058 3.37847-7.35271 2.94108-6.82857 2.72238-5.98771 2.72238-4.82639 2.72238-3.65938 2.92789-2.81288 3.34077-2.285 3.75176-1.7571 4.36072-1.49316 5.16573-1.49316 5.85953-1.49316 6.37233-1.64776 6.70414-1.96072 7.03596-2.2718 7.20189-2.73747 7.20189-3.35585L7.20189-3.77816 4.91688-3.77816 4.91688-5.32409 9.09475-5.32409 9.09475 0 7.26975 0 7.26975-1.29709 7.13398-1.31217C6.93793-0.848387 6.63628-0.492065 6.22903-0.241319 5.8256 0.00942652 5.31091 0.135742 4.6831 0.135742Z" transform="matrix(1 0 0 1.00054 436.357 384.48)"/><path d="M3.15978-4.23817 3.15978-1.59874 7.76749-1.59874 7.76749 0 1.25184 0 1.25184-9.64525 7.66189-9.64525 7.66189-8.05404 3.15978-8.05404 3.15978-5.79167 7.09629-5.79167 7.09629-4.23817Z" transform="matrix(1 0 0 1.00054 446.418 384.48)"/><path d="M0.000778755 0.543678 123.671 0.543678" stroke="#000000" stroke-width="1.08594" fill="none" transform="matrix(1 -1.24067e-16 1.24e-16 1.00054 258.171 369.573)"/><path d="M-0.000197878 0.542053 146.1 0.542053" stroke="#000000" stroke-width="1.08594" fill="none" transform="matrix(1 0 0 1.00054 479.545 368.499)"/><path d="M3.45388 0.098036C2.63377 0.098036 2.01351-0.109348 1.5912-0.527886 1.16889-0.944539 0.957739-1.56292 0.957739-2.38303L0.957739-6.69661 1.74203-6.69661 1.74203-2.39057C1.74203-1.80236 1.88154-1.36119 2.16434-1.07086 2.44525-0.778632 2.87509-0.633464 3.45388-0.633464 4.5945-0.633464 5.16573-1.21791 5.16573-2.39057L5.16573-6.69661 5.95002-6.69661 5.95002-2.38303C5.95002-1.56292 5.73887-0.944539 5.31656-0.527886 4.89425-0.109348 4.27211 0.098036 3.45388 0.098036Z" transform="matrix(1 0 0 1.00054 297.06 363.6)"/><path d="M2.30762 0.098036C1.98523 0.098036 1.68924 0.0546738 1.41775-0.0301649 1.15004-0.115004 0.9238-0.230007 0.739041-0.377062 0.552395-0.52223 0.422309-0.686255 0.346897-0.867244L0.784288-1.32726 0.882322-1.32726C1.04258-1.07462 1.23865-0.886096 1.47054-0.761662 1.70621-0.635351 1.98523-0.573134 2.30762-0.573134 2.67902-0.573134 2.95993-0.644777 3.15224-0.791827 3.34831-0.937 3.44634-1.13873 3.44634-1.39513 3.44634-1.59497 3.38601-1.75899 3.26535-1.88531 3.14847-2.01539 2.95993-2.11343 2.69976-2.17941L1.8476-2.39057C1.38947-2.49992 1.05577-2.67337 0.844618-2.91092 0.637233-3.15224 0.53543-3.44823 0.53543-3.80078 0.53543-4.07227 0.605186-4.30793 0.746584-4.50966 0.886096-4.71516 1.08782-4.87354 1.34988-4.98474 1.61571-5.09411 1.93056-5.15067 2.29253-5.15067 2.76009-5.15067 3.12584-5.0847 3.39355-4.95458 3.65938-4.82262 3.86865-4.64163 4.01947-4.41162L3.59717-3.99685 3.50667-3.99685C3.34077-4.18161 3.16166-4.31547 2.97125-4.39654 2.7846-4.48138 2.55836-4.52474 2.29253-4.52474 1.96072-4.52474 1.70621-4.46441 1.53087-4.34375 1.35365-4.22686 1.26693-4.05718 1.26693-3.83095 1.26693-3.62356 1.32726-3.45765 1.44792-3.33322 1.57235-3.20691 1.79104-3.10699 2.10401-3.03158L2.94862-2.82796C3.38601-2.72616 3.70275-2.55648 3.89881-2.31516 4.09489-2.07384 4.19293-1.76842 4.19293-1.40267 4.19293-1.11045 4.12128-0.852157 3.98177-0.625925 3.84037-0.399685 3.62733-0.220581 3.34077-0.0904948 3.05797 0.0339355 2.71484 0.098036 2.30762 0.098036Z" transform="matrix(1 0 0 1.00054 303.961 363.6)"/><path d="M4.81131-2.35286 1.34234-2.35286C1.36119-1.73825 1.50825-1.28955 1.77973-1.00298 2.05498-0.71642 2.43205-0.573134 2.91092-0.573134 3.26724-0.573134 3.55569-0.635351 3.77816-0.761662 3.99874-0.891753 4.17219-1.09536 4.2985-1.3725L4.39654-1.3725 4.87919-1.0784C4.73212-0.710763 4.49834-0.422309 4.17784-0.211155 3.85545-0.00377062 3.43315 0.098036 2.91092 0.098036 2.42262 0.098036 2.0022 0.00188531 1.65153-0.188531 1.29898-0.384603 1.02749-0.674942 0.837079-1.06331 0.644777-1.45546 0.550508-1.94187 0.550508-2.52632 0.550508-3.09945 0.650433-3.58209 0.852157-3.97423 1.052-4.37015 1.32726-4.66425 1.67415-4.85655 2.02105-5.05265 2.41696-5.15067 2.86567-5.15067 3.50856-5.15067 4.01194-4.96592 4.37392-4.60015 4.73966-4.23817 4.9263-3.69709 4.93199-2.97879 4.93199-2.69599 4.92441-2.50746 4.90935-2.41319ZM4.19293-2.97879C4.17784-3.5161 4.05718-3.90636 3.83095-4.14768 3.60471-4.39277 3.28232-4.5172 2.86567-4.5172 2.42262-4.5172 2.07384-4.39277 1.81743-4.14768 1.56481-3.9007 1.4121-3.51044 1.35742-2.97879Z" transform="matrix(1 0 0 1.00054 308.632 363.6)"/><path d="M0.882322 0 0.882322-5.05265 1.5912-5.05265 1.5912-4.26079 1.68924-4.23817C1.91924-4.81131 2.36229-5.09787 3.01649-5.09787 3.35773-5.09787 3.61414-5.03378 3.7857-4.90935L3.59717-4.27588 3.50667-4.26079C3.31437-4.35506 3.10699-4.40408 2.88075-4.40408 2.47729-4.40408 2.16811-4.24949 1.95318-3.94407 1.73637-3.64242 1.62891-3.15412 1.62891-2.48106L1.62891 0Z" transform="matrix(1 0 0 1.00054 314.016 363.6)"/><path d="M0.882322 0 0.882322-5.05265 1.5912-5.05265 1.5912-4.26079 1.68924-4.23817C1.85514-4.53417 2.06818-4.7604 2.33024-4.91688 2.59041-5.07147 2.91092-5.15067 3.28798-5.15067 3.89128-5.15067 4.32867-4.9942 4.60015-4.6831 4.87542-4.37015 5.01491-3.89316 5.01491-3.25027L5.01491 0 4.26834 0 4.26834-3.23519C4.26834-3.54061 4.22686-3.7857 4.14768-3.96669 4.07227-4.15145 3.95161-4.28531 3.7857-4.36638 3.62356-4.45121 3.41052-4.49457 3.14469-4.49457 2.69222-4.49457 2.32459-4.34375 2.04368-4.0421 1.76654-3.74422 1.62891-3.26158 1.62891-2.59418L1.62891 0Z" transform="matrix(1 0 0 1.00054 317.918 363.6)"/><path d="M2.08138 0.098036C1.58366 0.098036 1.1934-0.0320502 0.912487-0.294108 0.635351-0.554282 0.497721-0.9238 0.497721-1.40267 0.497721-1.70432 0.558051-1.95695 0.678711-2.16434 0.80314-2.36983 0.99733-2.53762 1.25939-2.6696 1.51956-2.79968 1.85891-2.8996 2.27745-2.97125 2.6432-3.03158 2.92223-3.09945 3.11453-3.17486 3.30495-3.25027 3.43315-3.33511 3.49913-3.43126 3.56323-3.52553 3.59717-3.6443 3.59717-3.7857 3.59717-4.01571 3.5161-4.19293 3.35585-4.31359 3.19937-4.43424 2.94862-4.49457 2.60172-4.49457 2.27368-4.49457 1.99277-4.43048 1.7571-4.30605 1.52522-4.17973 1.31217-3.9912 1.1161-3.74045L1.02561-3.74045 0.65609-4.26079C0.871014-4.53228 1.1425-4.74721 1.47054-4.90935 1.80236-5.06959 2.17941-5.15067 2.60172-5.15067 3.19371-5.15067 3.6311-5.01867 3.9139-4.75852 4.20046-4.49646 4.34375-4.13448 4.34375-3.67258L4.34375-0.995443C4.34375-0.712645 4.46064-0.573134 4.69819-0.573134 4.77737-0.573134 4.85655-0.584447 4.93199-0.610837L4.99232-0.59576 5.08277-0.0754123C5.02625-0.0395914 4.95458-0.0113118 4.86408 0.00754123 4.7736 0.0263943 4.67933 0.0377062 4.58507 0.0377062 4.30793 0.0377062 4.09677-0.0226237 3.95161-0.143283 3.81021-0.267714 3.71971-0.448704 3.68012-0.686255L3.58963-0.693793C3.44257-0.426079 3.2465-0.228122 3.00141-0.098036 2.76009 0.0320502 2.45279 0.098036 2.08138 0.098036ZM2.24729-0.497721C2.5282-0.497721 2.7714-0.561821 2.97879-0.693793 3.18429-0.823879 3.34265-1.00487 3.45388-1.23676 3.56323-1.47243 3.61979-1.7458 3.61979-2.05875L3.61979-2.69976 3.5293-2.71484C3.41806-2.63377 3.28044-2.56591 3.11453-2.51123 2.95239-2.46033 2.72993-2.41508 2.44336-2.37549 2.14548-2.33401 1.9117-2.2718 1.74203-2.18696 1.57046-2.10589 1.44792-2.0022 1.3725-1.87776 1.30086-1.75145 1.26693-1.59308 1.26693-1.40267 1.26693-1.11045 1.35177-0.886096 1.52333-0.731497 1.69866-0.575021 1.93998-0.497721 2.24729-0.497721Z" transform="matrix(1 0 0 1.00054 323.733 363.6)"/><path d="M0.882322 0 0.882322-5.05265 1.5912-5.05265 1.5912-4.30605 1.68924-4.29096C1.85891-4.57187 2.0663-4.78491 2.30762-4.93199 2.54894-5.07712 2.83927-5.15067 3.1824-5.15067 3.56889-5.15067 3.86865-5.07524 4.0798-4.92441 4.29473-4.77737 4.46441-4.53982 4.58507-4.20801L4.6831-4.20801C4.85279-4.51908 5.06771-4.75286 5.32409-4.90935 5.58051-5.06959 5.89346-5.15067 6.26678-5.15067 6.78334-5.15067 7.17172-5.00926 7.4281-4.72836 7.68453-4.44556 7.81272-4.01947 7.81272-3.44634L7.81272 0 7.06612 0 7.06612-3.42372C7.06612-3.78947 6.98697-4.05907 6.83233-4.23063 6.67586-4.40597 6.42701-4.49457 6.08579-4.49457 5.6823-4.49457 5.3543-4.34752 5.09787-4.05718 4.84526-3.76496 4.72081-3.28232 4.72081-2.60927L4.72081 0 3.97423 0 3.97423-3.42372C3.97423-3.78947 3.89505-4.05907 3.74045-4.23063 3.58397-4.40597 3.33511-4.49457 2.99387-4.49457 2.59041-4.49457 2.26237-4.35318 2.00597-4.07227 1.75334-3.78947 1.62891-3.32946 1.62891-2.69222L1.62891 0Z" transform="matrix(1 0 0 1.00054 328.957 363.6)"/><path d="M4.81131-2.35286 1.34234-2.35286C1.36119-1.73825 1.50825-1.28955 1.77973-1.00298 2.05498-0.71642 2.43205-0.573134 2.91092-0.573134 3.26724-0.573134 3.55569-0.635351 3.77816-0.761662 3.99874-0.891753 4.17219-1.09536 4.2985-1.3725L4.39654-1.3725 4.87919-1.0784C4.73212-0.710763 4.49834-0.422309 4.17784-0.211155 3.85545-0.00377062 3.43315 0.098036 2.91092 0.098036 2.42262 0.098036 2.0022 0.00188531 1.65153-0.188531 1.29898-0.384603 1.02749-0.674942 0.837079-1.06331 0.644777-1.45546 0.550508-1.94187 0.550508-2.52632 0.550508-3.09945 0.650433-3.58209 0.852157-3.97423 1.052-4.37015 1.32726-4.66425 1.67415-4.85655 2.02105-5.05265 2.41696-5.15067 2.86567-5.15067 3.50856-5.15067 4.01194-4.96592 4.37392-4.60015 4.73966-4.23817 4.9263-3.69709 4.93199-2.97879 4.93199-2.69599 4.92441-2.50746 4.90935-2.41319ZM4.19293-2.97879C4.17784-3.5161 4.05718-3.90636 3.83095-4.14768 3.60471-4.39277 3.28232-4.5172 2.86567-4.5172 2.42262-4.5172 2.07384-4.39277 1.81743-4.14768 1.56481-3.9007 1.4121-3.51044 1.35742-2.97879Z" transform="matrix(1 0 0 1.00054 337.565 363.6)"/><path d="M3.40864-6.69661C3.87054-6.69661 4.26457-6.61365 4.59261-6.44777 4.92441-6.28184 5.17519-6.04428 5.34672-5.73887 5.51642-5.43157 5.60315-5.07147 5.60315-4.66048 5.60315-4.24194 5.51642-3.87996 5.34672-3.57454 5.17519-3.2729 4.92441-3.03535 4.59261-2.86567 4.26457-2.69976 3.87054-2.61681 3.40864-2.61681L1.80236-2.61681 1.80236 0 1.01053 0 1.01053-6.69661ZM3.38601-3.29552C4.31547-3.29552 4.78114-3.74988 4.78114-4.66048 4.78114-5.56922 4.31547-6.02546 3.38601-6.02546L1.80236-6.02546 1.80236-3.29552Z" transform="matrix(1 0 0 1.00054 297.06 380.031)"/><path d="M2.08138 0.098036C1.58366 0.098036 1.1934-0.0320502 0.912487-0.294108 0.635351-0.554282 0.497721-0.9238 0.497721-1.40267 0.497721-1.70432 0.558051-1.95695 0.678711-2.16434 0.80314-2.36983 0.99733-2.53762 1.25939-2.6696 1.51956-2.79968 1.85891-2.8996 2.27745-2.97125 2.6432-3.03158 2.92223-3.09945 3.11453-3.17486 3.30495-3.25027 3.43315-3.33511 3.49913-3.43126 3.56323-3.52553 3.59717-3.6443 3.59717-3.7857 3.59717-4.01571 3.5161-4.19293 3.35585-4.31359 3.19937-4.43424 2.94862-4.49457 2.60172-4.49457 2.27368-4.49457 1.99277-4.43048 1.7571-4.30605 1.52522-4.17973 1.31217-3.9912 1.1161-3.74045L1.02561-3.74045 0.65609-4.26079C0.871014-4.53228 1.1425-4.74721 1.47054-4.90935 1.80236-5.06959 2.17941-5.15067 2.60172-5.15067 3.19371-5.15067 3.6311-5.01867 3.9139-4.75852 4.20046-4.49646 4.34375-4.13448 4.34375-3.67258L4.34375-0.995443C4.34375-0.712645 4.46064-0.573134 4.69819-0.573134 4.77737-0.573134 4.85655-0.584447 4.93199-0.610837L4.99232-0.59576 5.08277-0.0754123C5.02625-0.0395914 4.95458-0.0113118 4.86408 0.00754123 4.7736 0.0263943 4.67933 0.0377062 4.58507 0.0377062 4.30793 0.0377062 4.09677-0.0226237 3.95161-0.143283 3.81021-0.267714 3.71971-0.448704 3.68012-0.686255L3.58963-0.693793C3.44257-0.426079 3.2465-0.228122 3.00141-0.098036 2.76009 0.0320502 2.45279 0.098036 2.08138 0.098036ZM2.24729-0.497721C2.5282-0.497721 2.7714-0.561821 2.97879-0.693793 3.18429-0.823879 3.34265-1.00487 3.45388-1.23676 3.56323-1.47243 3.61979-1.7458 3.61979-2.05875L3.61979-2.69976 3.5293-2.71484C3.41806-2.63377 3.28044-2.56591 3.11453-2.51123 2.95239-2.46033 2.72993-2.41508 2.44336-2.37549 2.14548-2.33401 1.9117-2.2718 1.74203-2.18696 1.57046-2.10589 1.44792-2.0022 1.3725-1.87776 1.30086-1.75145 1.26693-1.59308 1.26693-1.40267 1.26693-1.11045 1.35177-0.886096 1.52333-0.731497 1.69866-0.575021 1.93998-0.497721 2.24729-0.497721Z" transform="matrix(1 0 0 1.00054 303.164 380.031)"/><path d="M2.30762 0.098036C1.98523 0.098036 1.68924 0.0546738 1.41775-0.0301649 1.15004-0.115004 0.9238-0.230007 0.739041-0.377062 0.552395-0.52223 0.422309-0.686255 0.346897-0.867244L0.784288-1.32726 0.882322-1.32726C1.04258-1.07462 1.23865-0.886096 1.47054-0.761662 1.70621-0.635351 1.98523-0.573134 2.30762-0.573134 2.67902-0.573134 2.95993-0.644777 3.15224-0.791827 3.34831-0.937 3.44634-1.13873 3.44634-1.39513 3.44634-1.59497 3.38601-1.75899 3.26535-1.88531 3.14847-2.01539 2.95993-2.11343 2.69976-2.17941L1.8476-2.39057C1.38947-2.49992 1.05577-2.67337 0.844618-2.91092 0.637233-3.15224 0.53543-3.44823 0.53543-3.80078 0.53543-4.07227 0.605186-4.30793 0.746584-4.50966 0.886096-4.71516 1.08782-4.87354 1.34988-4.98474 1.61571-5.09411 1.93056-5.15067 2.29253-5.15067 2.76009-5.15067 3.12584-5.0847 3.39355-4.95458 3.65938-4.82262 3.86865-4.64163 4.01947-4.41162L3.59717-3.99685 3.50667-3.99685C3.34077-4.18161 3.16166-4.31547 2.97125-4.39654 2.7846-4.48138 2.55836-4.52474 2.29253-4.52474 1.96072-4.52474 1.70621-4.46441 1.53087-4.34375 1.35365-4.22686 1.26693-4.05718 1.26693-3.83095 1.26693-3.62356 1.32726-3.45765 1.44792-3.33322 1.57235-3.20691 1.79104-3.10699 2.10401-3.03158L2.94862-2.82796C3.38601-2.72616 3.70275-2.55648 3.89881-2.31516 4.09489-2.07384 4.19293-1.76842 4.19293-1.40267 4.19293-1.11045 4.12128-0.852157 3.98177-0.625925 3.84037-0.399685 3.62733-0.220581 3.34077-0.0904948 3.05797 0.0339355 2.71484 0.098036 2.30762 0.098036Z" transform="matrix(1 0 0 1.00054 308.389 380.031)"/><path d="M2.30762 0.098036C1.98523 0.098036 1.68924 0.0546738 1.41775-0.0301649 1.15004-0.115004 0.9238-0.230007 0.739041-0.377062 0.552395-0.52223 0.422309-0.686255 0.346897-0.867244L0.784288-1.32726 0.882322-1.32726C1.04258-1.07462 1.23865-0.886096 1.47054-0.761662 1.70621-0.635351 1.98523-0.573134 2.30762-0.573134 2.67902-0.573134 2.95993-0.644777 3.15224-0.791827 3.34831-0.937 3.44634-1.13873 3.44634-1.39513 3.44634-1.59497 3.38601-1.75899 3.26535-1.88531 3.14847-2.01539 2.95993-2.11343 2.69976-2.17941L1.8476-2.39057C1.38947-2.49992 1.05577-2.67337 0.844618-2.91092 0.637233-3.15224 0.53543-3.44823 0.53543-3.80078 0.53543-4.07227 0.605186-4.30793 0.746584-4.50966 0.886096-4.71516 1.08782-4.87354 1.34988-4.98474 1.61571-5.09411 1.93056-5.15067 2.29253-5.15067 2.76009-5.15067 3.12584-5.0847 3.39355-4.95458 3.65938-4.82262 3.86865-4.64163 4.01947-4.41162L3.59717-3.99685 3.50667-3.99685C3.34077-4.18161 3.16166-4.31547 2.97125-4.39654 2.7846-4.48138 2.55836-4.52474 2.29253-4.52474 1.96072-4.52474 1.70621-4.46441 1.53087-4.34375 1.35365-4.22686 1.26693-4.05718 1.26693-3.83095 1.26693-3.62356 1.32726-3.45765 1.44792-3.33322 1.57235-3.20691 1.79104-3.10699 2.10401-3.03158L2.94862-2.82796C3.38601-2.72616 3.70275-2.55648 3.89881-2.31516 4.09489-2.07384 4.19293-1.76842 4.19293-1.40267 4.19293-1.11045 4.12128-0.852157 3.98177-0.625925 3.84037-0.399685 3.62733-0.220581 3.34077-0.0904948 3.05797 0.0339355 2.71484 0.098036 2.30762 0.098036Z" transform="matrix(1 0 0 1.00054 313.059 380.031)"/><path d="M2.50369 0 1.56104 0 0.324273-5.05265 1.06331-5.05265 2.02105-0.867244 2.11908-0.867244 3.29552-5.05265 4.0798-5.05265 5.29397-0.867244 5.38442-0.867244 6.32711-5.05265 7.04354-5.05265 5.8143 0 4.87166 0 3.71783-3.92144 3.61979-3.92144Z" transform="matrix(1 0 0 1.00054 317.73 380.031)"/><path d="M2.89583 0.098036C2.42262 0.098036 2.00786-0.00188531 1.65153-0.203613 1.29898-0.403456 1.02749-0.701332 0.837079-1.09348 0.644777-1.48939 0.550508-1.96826 0.550508-2.52632 0.550508-3.08436 0.644777-3.55946 0.837079-3.95161 1.02749-4.34752 1.29898-4.64729 1.65153-4.84902 2.00786-5.04884 2.42262-5.15067 2.89583-5.15067 3.37282-5.15067 3.78759-5.04884 4.14013-4.84902 4.49646-4.64729 4.76795-4.34752 4.95458-3.95161 5.14503-3.55946 5.24117-3.08436 5.24117-2.52632 5.24117-1.96826 5.14503-1.48939 4.95458-1.09348 4.76795-0.701332 4.49646-0.403456 4.14013-0.203613 3.78759-0.00188531 3.37282 0.098036 2.89583 0.098036ZM2.89583-0.573134C3.40298-0.573134 3.78947-0.731497 4.05718-1.04823 4.32301-1.36496 4.45687-1.85703 4.45687-2.52632 4.45687-3.19371 4.32301-3.68766 4.05718-4.0044 3.78947-4.32112 3.40298-4.47949 2.89583-4.47949 2.39246-4.47949 2.00597-4.31735 1.73448-3.99685 1.46677-3.68012 1.3348-3.18994 1.3348-2.52632 1.3348-1.85703 1.46677-1.36496 1.73448-1.04823 2.00597-0.731497 2.39246-0.573134 2.89583-0.573134Z" transform="matrix(1 0 0 1.00054 325.093 380.031)"/><path d="M0.882322 0 0.882322-5.05265 1.5912-5.05265 1.5912-4.26079 1.68924-4.23817C1.91924-4.81131 2.36229-5.09787 3.01649-5.09787 3.35773-5.09787 3.61414-5.03378 3.7857-4.90935L3.59717-4.27588 3.50667-4.26079C3.31437-4.35506 3.10699-4.40408 2.88075-4.40408 2.47729-4.40408 2.16811-4.24949 1.95318-3.94407 1.73637-3.64242 1.62891-3.15412 1.62891-2.48106L1.62891 0Z" transform="matrix(1 0 0 1.00054 330.89 380.031)"/><path d="M2.61681 0.098036C2.21335 0.098036 1.85703 0.00188531 1.54595-0.188531 1.23299-0.384603 0.989786-0.678711 0.814453-1.07086 0.637233-1.463 0.550508-1.94753 0.550508-2.52632 0.550508-3.09945 0.641002-3.58209 0.821992-3.97423 1.00676-4.37015 1.26127-4.66425 1.58366-4.85655 1.90982-5.05265 2.285-5.15067 2.7073-5.15067 3.04289-5.15067 3.34454-5.0847 3.61225-4.95458 3.88374-4.82827 4.11374-4.62277 4.30605-4.33621L4.40408-4.35129 4.40408-7.08123 5.15067-7.08123 5.15067 0 4.40408 0 4.40408-0.739041 4.30605-0.754123C4.14013-0.501491 3.91578-0.295993 3.63487-0.135742 3.35208 0.0188531 3.01272 0.098036 2.61681 0.098036ZM2.85059-0.573134C3.32191-0.573134 3.69897-0.733384 3.98177-1.05577 4.26268-1.37627 4.40408-1.86646 4.40408-2.52632 4.40408-3.18429 4.26268-3.67446 3.98177-3.99685 3.69897-4.31735 3.32191-4.47949 2.85059-4.47949 2.36795-4.47949 1.99277-4.32112 1.72694-4.0044 1.46489-3.69143 1.3348-3.19937 1.3348-2.52632 1.3348-1.22357 1.84006-0.573134 2.85059-0.573134Z" transform="matrix(1 0 0 1.00054 334.791 380.031)"/><path d="M3.64996 0 2.60927 0 0.286567-6.69661 1.12364-6.69661 3.09191-0.987904 3.20502-0.987904 5.15067-6.69661 5.97266-6.69661Z" transform="matrix(1 0 0 1.00054 523.978 363.6)"/><path d="M1.25184-6.02546C1.09536-6.02546 0.967165-6.07445 0.867244-6.17628 0.765436-6.27619 0.71642-6.40249 0.71642-6.55332 0.71642-6.70791 0.765436-6.83426 0.867244-6.9304 0.967165-7.03031 1.09536-7.08123 1.25184-7.08123 1.4121-7.08123 1.54218-7.03031 1.64399-6.9304 1.74391-6.83426 1.79481-6.70791 1.79481-6.55332 1.79481-6.40249 1.74391-6.27619 1.64399-6.17628 1.54218-6.07445 1.4121-6.02546 1.25184-6.02546ZM0.882322 0 0.882322-5.05265 1.62891-5.05265 1.62891 0Z" transform="matrix(1 0 0 1.00054 530.233 363.6)"/><path d="M2.30762 0.098036C1.98523 0.098036 1.68924 0.0546738 1.41775-0.0301649 1.15004-0.115004 0.9238-0.230007 0.739041-0.377062 0.552395-0.52223 0.422309-0.686255 0.346897-0.867244L0.784288-1.32726 0.882322-1.32726C1.04258-1.07462 1.23865-0.886096 1.47054-0.761662 1.70621-0.635351 1.98523-0.573134 2.30762-0.573134 2.67902-0.573134 2.95993-0.644777 3.15224-0.791827 3.34831-0.937 3.44634-1.13873 3.44634-1.39513 3.44634-1.59497 3.38601-1.75899 3.26535-1.88531 3.14847-2.01539 2.95993-2.11343 2.69976-2.17941L1.8476-2.39057C1.38947-2.49992 1.05577-2.67337 0.844618-2.91092 0.637233-3.15224 0.53543-3.44823 0.53543-3.80078 0.53543-4.07227 0.605186-4.30793 0.746584-4.50966 0.886096-4.71516 1.08782-4.87354 1.34988-4.98474 1.61571-5.09411 1.93056-5.15067 2.29253-5.15067 2.76009-5.15067 3.12584-5.0847 3.39355-4.95458 3.65938-4.82262 3.86865-4.64163 4.01947-4.41162L3.59717-3.99685 3.50667-3.99685C3.34077-4.18161 3.16166-4.31547 2.97125-4.39654 2.7846-4.48138 2.55836-4.52474 2.29253-4.52474 1.96072-4.52474 1.70621-4.46441 1.53087-4.34375 1.35365-4.22686 1.26693-4.05718 1.26693-3.83095 1.26693-3.62356 1.32726-3.45765 1.44792-3.33322 1.57235-3.20691 1.79104-3.10699 2.10401-3.03158L2.94862-2.82796C3.38601-2.72616 3.70275-2.55648 3.89881-2.31516 4.09489-2.07384 4.19293-1.76842 4.19293-1.40267 4.19293-1.11045 4.12128-0.852157 3.98177-0.625925 3.84037-0.399685 3.62733-0.220581 3.34077-0.0904948 3.05797 0.0339355 2.71484 0.098036 2.30762 0.098036Z" transform="matrix(1 0 0 1.00054 532.737 363.6)"/><path d="M2.49615 0.098036C1.92302 0.098036 1.49505-0.0527886 1.21414-0.354438 0.937-0.659859 0.799371-1.10479 0.799371-1.68924L0.799371-5.05265 1.54595-5.05265 1.54595-1.70432C1.54595-0.935113 1.90793-0.550508 2.63189-0.550508 3.08814-0.550508 3.44823-0.701332 3.71029-1.00298 3.97611-1.30463 4.10997-1.78916 4.10997-2.45844L4.10997-5.05265 4.85655-5.05265 4.85655 0 4.15522 0 4.15522-0.791827 4.05718-0.814453C3.88562-0.507147 3.67635-0.279026 3.43126-0.128201 3.18994 0.0226237 2.87698 0.098036 2.49615 0.098036Z" transform="matrix(1 0 0 1.00054 537.408 363.6)"/><path d="M2.08138 0.098036C1.58366 0.098036 1.1934-0.0320502 0.912487-0.294108 0.635351-0.554282 0.497721-0.9238 0.497721-1.40267 0.497721-1.70432 0.558051-1.95695 0.678711-2.16434 0.80314-2.36983 0.99733-2.53762 1.25939-2.6696 1.51956-2.79968 1.85891-2.8996 2.27745-2.97125 2.6432-3.03158 2.92223-3.09945 3.11453-3.17486 3.30495-3.25027 3.43315-3.33511 3.49913-3.43126 3.56323-3.52553 3.59717-3.6443 3.59717-3.7857 3.59717-4.01571 3.5161-4.19293 3.35585-4.31359 3.19937-4.43424 2.94862-4.49457 2.60172-4.49457 2.27368-4.49457 1.99277-4.43048 1.7571-4.30605 1.52522-4.17973 1.31217-3.9912 1.1161-3.74045L1.02561-3.74045 0.65609-4.26079C0.871014-4.53228 1.1425-4.74721 1.47054-4.90935 1.80236-5.06959 2.17941-5.15067 2.60172-5.15067 3.19371-5.15067 3.6311-5.01867 3.9139-4.75852 4.20046-4.49646 4.34375-4.13448 4.34375-3.67258L4.34375-0.995443C4.34375-0.712645 4.46064-0.573134 4.69819-0.573134 4.77737-0.573134 4.85655-0.584447 4.93199-0.610837L4.99232-0.59576 5.08277-0.0754123C5.02625-0.0395914 4.95458-0.0113118 4.86408 0.00754123 4.7736 0.0263943 4.67933 0.0377062 4.58507 0.0377062 4.30793 0.0377062 4.09677-0.0226237 3.95161-0.143283 3.81021-0.267714 3.71971-0.448704 3.68012-0.686255L3.58963-0.693793C3.44257-0.426079 3.2465-0.228122 3.00141-0.098036 2.76009 0.0320502 2.45279 0.098036 2.08138 0.098036ZM2.24729-0.497721C2.5282-0.497721 2.7714-0.561821 2.97879-0.693793 3.18429-0.823879 3.34265-1.00487 3.45388-1.23676 3.56323-1.47243 3.61979-1.7458 3.61979-2.05875L3.61979-2.69976 3.5293-2.71484C3.41806-2.63377 3.28044-2.56591 3.11453-2.51123 2.95239-2.46033 2.72993-2.41508 2.44336-2.37549 2.14548-2.33401 1.9117-2.2718 1.74203-2.18696 1.57046-2.10589 1.44792-2.0022 1.3725-1.87776 1.30086-1.75145 1.26693-1.59308 1.26693-1.40267 1.26693-1.11045 1.35177-0.886096 1.52333-0.731497 1.69866-0.575021 1.93998-0.497721 2.24729-0.497721Z" transform="matrix(1 0 0 1.00054 543.145 363.6)"/><path d="M2.01351 0.098036C1.6553 0.098036 1.37439-0.00188531 1.16889-0.203613 0.961508-0.409112 0.859701-0.712645 0.859701-1.1161L0.859701-7.08123 1.60628-7.08123 1.60628-1.16889C1.60628-0.957739 1.64588-0.80314 1.72694-0.708876 1.80613-0.618381 1.93244-0.573134 2.10401-0.573134 2.20958-0.573134 2.31516-0.590103 2.42073-0.625925L2.48861-0.603299 2.57156-0.0150825C2.515 0.0188531 2.4377 0.0471327 2.33778 0.0678711 2.23597 0.0867244 2.12851 0.098036 2.01351 0.098036Z" transform="matrix(1 0 0 1.00054 548.37 363.6)"/><path d="M1.25184-6.02546C1.09536-6.02546 0.967165-6.07445 0.867244-6.17628 0.765436-6.27619 0.71642-6.40249 0.71642-6.55332 0.71642-6.70791 0.765436-6.83426 0.867244-6.9304 0.967165-7.03031 1.09536-7.08123 1.25184-7.08123 1.4121-7.08123 1.54218-7.03031 1.64399-6.9304 1.74391-6.83426 1.79481-6.70791 1.79481-6.55332 1.79481-6.40249 1.74391-6.27619 1.64399-6.17628 1.54218-6.07445 1.4121-6.02546 1.25184-6.02546ZM0.882322 0 0.882322-5.05265 1.62891-5.05265 1.62891 0Z" transform="matrix(1 0 0 1.00054 551.117 363.6)"/><path d="M4.0421 0 0.346897 0 0.346897-0.648546 3.12207-4.34375 3.09191-4.44178 0.460015-4.44178 0.460015-5.06018 3.99685-5.06018 3.99685-4.40408 1.22168-0.708876 1.25184-0.610837 4.0421-0.610837Z" transform="matrix(1 0 0 1.00054 553.622 363.6)"/><path d="M2.08138 0.098036C1.58366 0.098036 1.1934-0.0320502 0.912487-0.294108 0.635351-0.554282 0.497721-0.9238 0.497721-1.40267 0.497721-1.70432 0.558051-1.95695 0.678711-2.16434 0.80314-2.36983 0.99733-2.53762 1.25939-2.6696 1.51956-2.79968 1.85891-2.8996 2.27745-2.97125 2.6432-3.03158 2.92223-3.09945 3.11453-3.17486 3.30495-3.25027 3.43315-3.33511 3.49913-3.43126 3.56323-3.52553 3.59717-3.6443 3.59717-3.7857 3.59717-4.01571 3.5161-4.19293 3.35585-4.31359 3.19937-4.43424 2.94862-4.49457 2.60172-4.49457 2.27368-4.49457 1.99277-4.43048 1.7571-4.30605 1.52522-4.17973 1.31217-3.9912 1.1161-3.74045L1.02561-3.74045 0.65609-4.26079C0.871014-4.53228 1.1425-4.74721 1.47054-4.90935 1.80236-5.06959 2.17941-5.15067 2.60172-5.15067 3.19371-5.15067 3.6311-5.01867 3.9139-4.75852 4.20046-4.49646 4.34375-4.13448 4.34375-3.67258L4.34375-0.995443C4.34375-0.712645 4.46064-0.573134 4.69819-0.573134 4.77737-0.573134 4.85655-0.584447 4.93199-0.610837L4.99232-0.59576 5.08277-0.0754123C5.02625-0.0395914 4.95458-0.0113118 4.86408 0.00754123 4.7736 0.0263943 4.67933 0.0377062 4.58507 0.0377062 4.30793 0.0377062 4.09677-0.0226237 3.95161-0.143283 3.81021-0.267714 3.71971-0.448704 3.68012-0.686255L3.58963-0.693793C3.44257-0.426079 3.2465-0.228122 3.00141-0.098036 2.76009 0.0320502 2.45279 0.098036 2.08138 0.098036ZM2.24729-0.497721C2.5282-0.497721 2.7714-0.561821 2.97879-0.693793 3.18429-0.823879 3.34265-1.00487 3.45388-1.23676 3.56323-1.47243 3.61979-1.7458 3.61979-2.05875L3.61979-2.69976 3.5293-2.71484C3.41806-2.63377 3.28044-2.56591 3.11453-2.51123 2.95239-2.46033 2.72993-2.41508 2.44336-2.37549 2.14548-2.33401 1.9117-2.2718 1.74203-2.18696 1.57046-2.10589 1.44792-2.0022 1.3725-1.87776 1.30086-1.75145 1.26693-1.59308 1.26693-1.40267 1.26693-1.11045 1.35177-0.886096 1.52333-0.731497 1.69866-0.575021 1.93998-0.497721 2.24729-0.497721Z" transform="matrix(1 0 0 1.00054 558.022 363.6)"/><path d="M3.41618-0.799371 3.6575-0.263943C3.53684-0.147054 3.37847-0.0603299 3.1824 0 2.9901 0.0641002 2.78271 0.098036 2.55648 0.098036 1.5912 0.098036 1.10856-0.392144 1.10856-1.3725L1.10856-4.44178 0.226237-4.44178 0.226237-5.06018 1.10856-5.06018 1.10856-6.12348 1.85514-6.25167 1.85514-5.06018 3.48405-5.06018 3.48405-4.44178 1.85514-4.44178 1.85514-1.44038C1.85514-0.861588 2.10589-0.573134 2.60927-0.573134 2.88452-0.573134 3.12207-0.648546 3.31814-0.799371Z" transform="matrix(1 0 0 1.00054 563.247 363.6)"/><path d="M1.25184-6.02546C1.09536-6.02546 0.967165-6.07445 0.867244-6.17628 0.765436-6.27619 0.71642-6.40249 0.71642-6.55332 0.71642-6.70791 0.765436-6.83426 0.867244-6.9304 0.967165-7.03031 1.09536-7.08123 1.25184-7.08123 1.4121-7.08123 1.54218-7.03031 1.64399-6.9304 1.74391-6.83426 1.79481-6.70791 1.79481-6.55332 1.79481-6.40249 1.74391-6.27619 1.64399-6.17628 1.54218-6.07445 1.4121-6.02546 1.25184-6.02546ZM0.882322 0 0.882322-5.05265 1.62891-5.05265 1.62891 0Z" transform="matrix(1 0 0 1.00054 567.093 363.6)"/><path d="M2.89583 0.098036C2.42262 0.098036 2.00786-0.00188531 1.65153-0.203613 1.29898-0.403456 1.02749-0.701332 0.837079-1.09348 0.644777-1.48939 0.550508-1.96826 0.550508-2.52632 0.550508-3.08436 0.644777-3.55946 0.837079-3.95161 1.02749-4.34752 1.29898-4.64729 1.65153-4.84902 2.00786-5.04884 2.42262-5.15067 2.89583-5.15067 3.37282-5.15067 3.78759-5.04884 4.14013-4.84902 4.49646-4.64729 4.76795-4.34752 4.95458-3.95161 5.14503-3.55946 5.24117-3.08436 5.24117-2.52632 5.24117-1.96826 5.14503-1.48939 4.95458-1.09348 4.76795-0.701332 4.49646-0.403456 4.14013-0.203613 3.78759-0.00188531 3.37282 0.098036 2.89583 0.098036ZM2.89583-0.573134C3.40298-0.573134 3.78947-0.731497 4.05718-1.04823 4.32301-1.36496 4.45687-1.85703 4.45687-2.52632 4.45687-3.19371 4.32301-3.68766 4.05718-4.0044 3.78947-4.32112 3.40298-4.47949 2.89583-4.47949 2.39246-4.47949 2.00597-4.31735 1.73448-3.99685 1.46677-3.68012 1.3348-3.18994 1.3348-2.52632 1.3348-1.85703 1.46677-1.36496 1.73448-1.04823 2.00597-0.731497 2.39246-0.573134 2.89583-0.573134Z" transform="matrix(1 0 0 1.00054 569.597 363.6)"/><path d="M0.882322 0 0.882322-5.05265 1.5912-5.05265 1.5912-4.26079 1.68924-4.23817C1.85514-4.53417 2.06818-4.7604 2.33024-4.91688 2.59041-5.07147 2.91092-5.15067 3.28798-5.15067 3.89128-5.15067 4.32867-4.9942 4.60015-4.6831 4.87542-4.37015 5.01491-3.89316 5.01491-3.25027L5.01491 0 4.26834 0 4.26834-3.23519C4.26834-3.54061 4.22686-3.7857 4.14768-3.96669 4.07227-4.15145 3.95161-4.28531 3.7857-4.36638 3.62356-4.45121 3.41052-4.49457 3.14469-4.49457 2.69222-4.49457 2.32459-4.34375 2.04368-4.0421 1.76654-3.74422 1.62891-3.26158 1.62891-2.59418L1.62891 0Z" transform="matrix(1 0 0 1.00054 575.394 363.6)"/><path d="M6.02546 0 5.18837 0 4.56999-1.84006 1.71186-1.84006 1.09348 0 0.263943 0 2.60172-6.69661 3.6952-6.69661ZM3.08436-5.88969 1.93056-2.49615 4.34375-2.49615 3.19748-5.88969Z" transform="matrix(1 0 0 1.00054 531.776 381.011)"/><path d="M0.882322 0 0.882322-5.05265 1.5912-5.05265 1.5912-4.26079 1.68924-4.23817C1.85514-4.53417 2.06818-4.7604 2.33024-4.91688 2.59041-5.07147 2.91092-5.15067 3.28798-5.15067 3.89128-5.15067 4.32867-4.9942 4.60015-4.6831 4.87542-4.37015 5.01491-3.89316 5.01491-3.25027L5.01491 0 4.26834 0 4.26834-3.23519C4.26834-3.54061 4.22686-3.7857 4.14768-3.96669 4.07227-4.15145 3.95161-4.28531 3.7857-4.36638 3.62356-4.45121 3.41052-4.49457 3.14469-4.49457 2.69222-4.49457 2.32459-4.34375 2.04368-4.0421 1.76654-3.74422 1.62891-3.26158 1.62891-2.59418L1.62891 0Z" transform="matrix(1 0 0 1.00054 538.068 381.011)"/><path d="M2.08138 0.098036C1.58366 0.098036 1.1934-0.0320502 0.912487-0.294108 0.635351-0.554282 0.497721-0.9238 0.497721-1.40267 0.497721-1.70432 0.558051-1.95695 0.678711-2.16434 0.80314-2.36983 0.99733-2.53762 1.25939-2.6696 1.51956-2.79968 1.85891-2.8996 2.27745-2.97125 2.6432-3.03158 2.92223-3.09945 3.11453-3.17486 3.30495-3.25027 3.43315-3.33511 3.49913-3.43126 3.56323-3.52553 3.59717-3.6443 3.59717-3.7857 3.59717-4.01571 3.5161-4.19293 3.35585-4.31359 3.19937-4.43424 2.94862-4.49457 2.60172-4.49457 2.27368-4.49457 1.99277-4.43048 1.7571-4.30605 1.52522-4.17973 1.31217-3.9912 1.1161-3.74045L1.02561-3.74045 0.65609-4.26079C0.871014-4.53228 1.1425-4.74721 1.47054-4.90935 1.80236-5.06959 2.17941-5.15067 2.60172-5.15067 3.19371-5.15067 3.6311-5.01867 3.9139-4.75852 4.20046-4.49646 4.34375-4.13448 4.34375-3.67258L4.34375-0.995443C4.34375-0.712645 4.46064-0.573134 4.69819-0.573134 4.77737-0.573134 4.85655-0.584447 4.93199-0.610837L4.99232-0.59576 5.08277-0.0754123C5.02625-0.0395914 4.95458-0.0113118 4.86408 0.00754123 4.7736 0.0263943 4.67933 0.0377062 4.58507 0.0377062 4.30793 0.0377062 4.09677-0.0226237 3.95161-0.143283 3.81021-0.267714 3.71971-0.448704 3.68012-0.686255L3.58963-0.693793C3.44257-0.426079 3.2465-0.228122 3.00141-0.098036 2.76009 0.0320502 2.45279 0.098036 2.08138 0.098036ZM2.24729-0.497721C2.5282-0.497721 2.7714-0.561821 2.97879-0.693793 3.18429-0.823879 3.34265-1.00487 3.45388-1.23676 3.56323-1.47243 3.61979-1.7458 3.61979-2.05875L3.61979-2.69976 3.5293-2.71484C3.41806-2.63377 3.28044-2.56591 3.11453-2.51123 2.95239-2.46033 2.72993-2.41508 2.44336-2.37549 2.14548-2.33401 1.9117-2.2718 1.74203-2.18696 1.57046-2.10589 1.44792-2.0022 1.3725-1.87776 1.30086-1.75145 1.26693-1.59308 1.26693-1.40267 1.26693-1.11045 1.35177-0.886096 1.52333-0.731497 1.69866-0.575021 1.93998-0.497721 2.24729-0.497721Z" transform="matrix(1 0 0 1.00054 543.883 381.011)"/><path d="M2.01351 0.098036C1.6553 0.098036 1.37439-0.00188531 1.16889-0.203613 0.961508-0.409112 0.859701-0.712645 0.859701-1.1161L0.859701-7.08123 1.60628-7.08123 1.60628-1.16889C1.60628-0.957739 1.64588-0.80314 1.72694-0.708876 1.80613-0.618381 1.93244-0.573134 2.10401-0.573134 2.20958-0.573134 2.31516-0.590103 2.42073-0.625925L2.48861-0.603299 2.57156-0.0150825C2.515 0.0188531 2.4377 0.0471327 2.33778 0.0678711 2.23597 0.0867244 2.12851 0.098036 2.01351 0.098036Z" transform="matrix(1 0 0 1.00054 549.108 381.011)"/><path d="M1.01053 2.14171C0.838962 2.14171 0.678711 2.12663 0.527886 2.09646 0.380832 2.07007 0.256402 2.03048 0.150825 1.9758L0.286567 1.38759 0.36952 1.35742C0.444933 1.39701 0.537312 1.42906 0.648546 1.45546 0.757893 1.47997 0.871014 1.49316 0.987904 1.49316 1.18775 1.49316 1.35742 1.46489 1.49316 1.41021 1.62891 1.35365 1.74391 1.26316 1.84006 1.13873 1.93433 1.01241 2.02294 0.837079 2.10401 0.610837L2.285 0.12066 0.256402-5.05265 1.06331-5.05265 2.65451-0.927574 2.73747-0.927574 4.27588-5.05265 5.04507-5.05265 2.78271 0.791827C2.6564 1.11233 2.51312 1.3725 2.35286 1.56858 2.19638 1.76842 2.00786 1.91547 1.78727 2.00597 1.57046 2.09646 1.31217 2.14171 1.01053 2.14171Z" transform="matrix(1 0 0 1.00054 551.855 381.011)"/><path d="M3.41618-0.799371 3.6575-0.263943C3.53684-0.147054 3.37847-0.0603299 3.1824 0 2.9901 0.0641002 2.78271 0.098036 2.55648 0.098036 1.5912 0.098036 1.10856-0.392144 1.10856-1.3725L1.10856-4.44178 0.226237-4.44178 0.226237-5.06018 1.10856-5.06018 1.10856-6.12348 1.85514-6.25167 1.85514-5.06018 3.48405-5.06018 3.48405-4.44178 1.85514-4.44178 1.85514-1.44038C1.85514-0.861588 2.10589-0.573134 2.60927-0.573134 2.88452-0.573134 3.12207-0.648546 3.31814-0.799371Z" transform="matrix(1 0 0 1.00054 557.18 381.011)"/><path d="M1.25184-6.02546C1.09536-6.02546 0.967165-6.07445 0.867244-6.17628 0.765436-6.27619 0.71642-6.40249 0.71642-6.55332 0.71642-6.70791 0.765436-6.83426 0.867244-6.9304 0.967165-7.03031 1.09536-7.08123 1.25184-7.08123 1.4121-7.08123 1.54218-7.03031 1.64399-6.9304 1.74391-6.83426 1.79481-6.70791 1.79481-6.55332 1.79481-6.40249 1.74391-6.27619 1.64399-6.17628 1.54218-6.07445 1.4121-6.02546 1.25184-6.02546ZM0.882322 0 0.882322-5.05265 1.62891-5.05265 1.62891 0Z" transform="matrix(1 0 0 1.00054 561.026 381.011)"/><path d="M2.89583 0.098036C2.45279 0.098036 2.0531-0.00188531 1.69677-0.203613 1.34423-0.409112 1.0652-0.708876 0.859701-1.10102 0.652315-1.49693 0.550508-1.97203 0.550508-2.52632 0.550508-3.07871 0.652315-3.55192 0.859701-3.94407 1.0652-4.33998 1.34423-4.63974 1.69677-4.84145 2.0531-5.04695 2.45279-5.15067 2.89583-5.15067 3.43315-5.15067 3.86111-5.04884 4.17784-4.84902 4.49457-4.64729 4.72081-4.37768 4.85655-4.0421L4.35129-3.67258 4.26079-3.67258C4.12506-3.94784 3.94784-4.15145 3.73291-4.28342 3.5161-4.41351 3.23707-4.47949 2.89583-4.47949 2.58853-4.47949 2.31704-4.40597 2.08138-4.26079 1.84383-4.11374 1.66096-3.89316 1.53087-3.59717 1.3989-3.30495 1.3348-2.94862 1.3348-2.52632 1.3348-2.10401 1.3989-1.7458 1.53087-1.45546 1.66661-1.16324 1.84949-0.942652 2.08138-0.791827 2.31704-0.644777 2.58853-0.573134 2.89583-0.573134 3.2465-0.573134 3.53872-0.650433 3.77062-0.806914 4.00062-0.967165 4.18161-1.21791 4.31359-1.56104L4.41162-1.56104 4.90178-1.27447C4.76983-0.846505 4.53605-0.509034 4.20046-0.263943 3.863-0.0226237 3.42749 0.098036 2.89583 0.098036Z" transform="matrix(1 0 0 1.00054 563.531 381.011)"/><path d="M2.30762 0.098036C1.98523 0.098036 1.68924 0.0546738 1.41775-0.0301649 1.15004-0.115004 0.9238-0.230007 0.739041-0.377062 0.552395-0.52223 0.422309-0.686255 0.346897-0.867244L0.784288-1.32726 0.882322-1.32726C1.04258-1.07462 1.23865-0.886096 1.47054-0.761662 1.70621-0.635351 1.98523-0.573134 2.30762-0.573134 2.67902-0.573134 2.95993-0.644777 3.15224-0.791827 3.34831-0.937 3.44634-1.13873 3.44634-1.39513 3.44634-1.59497 3.38601-1.75899 3.26535-1.88531 3.14847-2.01539 2.95993-2.11343 2.69976-2.17941L1.8476-2.39057C1.38947-2.49992 1.05577-2.67337 0.844618-2.91092 0.637233-3.15224 0.53543-3.44823 0.53543-3.80078 0.53543-4.07227 0.605186-4.30793 0.746584-4.50966 0.886096-4.71516 1.08782-4.87354 1.34988-4.98474 1.61571-5.09411 1.93056-5.15067 2.29253-5.15067 2.76009-5.15067 3.12584-5.0847 3.39355-4.95458 3.65938-4.82262 3.86865-4.64163 4.01947-4.41162L3.59717-3.99685 3.50667-3.99685C3.34077-4.18161 3.16166-4.31547 2.97125-4.39654 2.7846-4.48138 2.55836-4.52474 2.29253-4.52474 1.96072-4.52474 1.70621-4.46441 1.53087-4.34375 1.35365-4.22686 1.26693-4.05718 1.26693-3.83095 1.26693-3.62356 1.32726-3.45765 1.44792-3.33322 1.57235-3.20691 1.79104-3.10699 2.10401-3.03158L2.94862-2.82796C3.38601-2.72616 3.70275-2.55648 3.89881-2.31516 4.09489-2.07384 4.19293-1.76842 4.19293-1.40267 4.19293-1.11045 4.12128-0.852157 3.98177-0.625925 3.84037-0.399685 3.62733-0.220581 3.34077-0.0904948 3.05797 0.0339355 2.71484 0.098036 2.30762 0.098036Z" transform="matrix(1 0 0 1.00054 568.738 381.011)"/><path d="M0.000308543 0.723947 75.1451 0.723947" stroke="#000000" stroke-width="1.44792" fill="none" transform="matrix(1 0 0 1.00054 393.456 340.786)"/><path d="M4.06473 0.12066C3.46143 0.12066 2.91846-0.024509 2.43582-0.316732 1.95318-0.612725 1.56858-1.0784 1.28201-1.71186 0.995443-2.34533 0.852157-3.15224 0.852157-4.1326 0.852157-5.11298 0.995443-5.91986 1.28201-6.55332 1.56858-7.19055 1.95318-7.65625 2.43582-7.94848 2.91846-8.23879 3.46143-8.38585 4.06473-8.38585 4.67179-8.38585 5.21853-8.23879 5.70117-7.94848 6.18381-7.65625 6.56466-7.19055 6.84744-6.55332 7.13398-5.91986 7.27728-5.11298 7.27728-4.1326 7.27728-3.15224 7.13398-2.34533 6.84744-1.71186 6.56466-1.0784 6.18381-0.612725 5.70117-0.316732 5.21853-0.024509 4.67179 0.12066 4.06473 0.12066ZM4.06473-0.784288C4.78869-0.784288 5.33355-1.04258 5.70117-1.56104 6.07256-2.07761 6.25925-2.93542 6.25925-4.1326 6.25925-5.33355 6.07256-6.19322 5.70117-6.71167 5.33355-7.22829 4.78869-7.48843 4.06473-7.48843 3.59151-7.48843 3.19183-7.37723 2.86567-7.15662 2.54328-6.93982 2.2963-6.58537 2.12663-6.09332 1.95506-5.59938 1.87023-4.94705 1.87023-4.1326 1.87023-3.32191 1.95506-2.67148 2.12663-2.17941 2.2963-1.68547 2.54328-1.32914 2.86567-1.10856 3.19183-0.891753 3.59151-0.784288 4.06473-0.784288Z" transform="matrix(1 0 0 1.00054 426.628 336.579)"/></g></svg>